<?xml version="1.0" encoding="UTF-8"?>
<!DOCTYPE svg PUBLIC "-//W3C//DTD SVG 1.1//EN" "http://www.w3.org/Graphics/SVG/1.1/DTD/svg11.dtd">
<svg xmlns="http://www.w3.org/2000/svg" version="1.1" width="1066px" height="194px" style="shape-rendering:geometricPrecision; text-rendering:geometricPrecision; image-rendering:optimizeQuality; fill-rule:evenodd; clip-rule:evenodd" xmlns:xlink="http://www.w3.org/1999/xlink">
<g><path style="opacity:0.967" fill="#fcd370" d="M 533.5,-0.5 C 534.167,-0.5 534.833,-0.5 535.5,-0.5C 519.254,17.2482 502.421,34.5816 485,51.5C 461.546,75.2775 441.546,101.611 425,130.5C 418.887,142.841 413.553,155.508 409,168.5C 402.154,178.684 392.987,185.851 381.5,190C 377.167,190.667 372.833,190.667 368.5,190C 365.898,189.117 363.731,187.617 362,185.5C 355.053,161.315 345.386,138.315 333,116.5C 328.577,110.072 323.41,104.239 317.5,99C 313.856,96.3441 309.856,94.5107 305.5,93.5C 309.542,86.595 315.542,81.7616 323.5,79C 333.695,75.0782 343.362,76.0782 352.5,82C 357.034,86.1994 361.201,90.6994 365,95.5C 371.15,106.133 376.484,117.133 381,128.5C 407.788,86.0455 442.288,51.2122 484.5,24C 500.368,14.7328 516.701,6.56618 533.5,-0.5 Z"/></g>
<g><path style="opacity:0.978" fill="#fcd370" d="M 236.5,193.5 C 228.5,193.5 220.5,193.5 212.5,193.5C 194.933,190.122 184.766,179.455 182,161.5C 181.333,120.167 181.333,78.8333 182,37.5C 186.333,14.0137 200.5,3.01372 224.5,4.5C 248.99,3.17346 263.157,14.5068 267,38.5C 267.667,79.1667 267.667,119.833 267,160.5C 264.083,178.416 253.916,189.416 236.5,193.5 Z M 222.5,37.5 C 227.385,36.8558 230.552,38.8558 232,43.5C 232.667,80.5 232.667,117.5 232,154.5C 229.087,159.689 224.92,160.856 219.5,158C 218.299,157.097 217.465,155.931 217,154.5C 216.333,117.5 216.333,80.5 217,43.5C 218.021,40.6499 219.854,38.6499 222.5,37.5 Z"/></g>
<g><path style="opacity:0.973" fill="#fcd370" d="M 1065.5,36.5 C 1065.5,49.8333 1065.5,63.1667 1065.5,76.5C 1054.17,76.5 1042.83,76.5 1031.5,76.5C 1031.67,64.8286 1031.5,53.1619 1031,41.5C 1027.45,35.7913 1023.12,35.1246 1018,39.5C 1016.85,59.1043 1016.35,78.771 1016.5,98.5C 1016.67,117.167 1016.83,135.833 1017,154.5C 1018.45,159.308 1021.62,161.141 1026.5,160C 1028.67,159.167 1030.17,157.667 1031,155.5C 1031.5,140.17 1031.67,124.837 1031.5,109.5C 1042.83,109.5 1054.17,109.5 1065.5,109.5C 1065.5,125.833 1065.5,142.167 1065.5,158.5C 1064.41,171.179 1058.74,181.346 1048.5,189C 1044.57,191.028 1040.57,192.528 1036.5,193.5C 1027.5,193.5 1018.5,193.5 1009.5,193.5C 992.777,189.593 983.61,178.927 982,161.5C 981.333,119.833 981.333,78.1667 982,36.5C 984.425,18.4094 994.592,7.90943 1012.5,5C 1020.17,4.33333 1027.83,4.33333 1035.5,5C 1053.55,7.88631 1063.55,18.3863 1065.5,36.5 Z"/></g>
<g><path style="opacity:0.978" fill="#fcd370" d="M -0.5,6.5 C 26.5,6.5 53.5,6.5 80.5,6.5C 80.5,67.8333 80.5,129.167 80.5,190.5C 69.1667,190.5 57.8333,190.5 46.5,190.5C 46.5,140.5 46.5,90.5 46.5,40.5C 41.8333,40.5 37.1667,40.5 32.5,40.5C 32.5,90.5 32.5,140.5 32.5,190.5C 21.5,190.5 10.5,190.5 -0.5,190.5C -0.5,129.167 -0.5,67.8333 -0.5,6.5 Z"/></g>
<g><path style="opacity:0.974" fill="#fcd370" d="M 91.5,6.5 C 111.536,6.08865 131.536,6.58865 151.5,8C 160.918,9.29165 167.085,14.4583 170,23.5C 170.794,26.4715 171.461,29.4715 172,32.5C 172.667,51.8333 172.667,71.1667 172,90.5C 170.295,105.468 162.128,114.301 147.5,117C 140.174,117.5 132.841,117.666 125.5,117.5C 125.5,141.833 125.5,166.167 125.5,190.5C 114.167,190.5 102.833,190.5 91.5,190.5C 91.5,129.167 91.5,67.8333 91.5,6.5 Z M 125.5,36.5 C 128.85,36.335 132.183,36.5017 135.5,37C 136,37.5 136.5,38 137,38.5C 138.135,46.0673 138.635,53.7339 138.5,61.5C 138.635,69.2661 138.135,76.9327 137,84.5C 133.417,86.2902 129.584,86.9569 125.5,86.5C 125.5,69.8333 125.5,53.1667 125.5,36.5 Z"/></g>
<g><path style="opacity:0.965" fill="#fcd370" d="M 555.5,6.5 C 578.833,6.5 602.167,6.5 625.5,6.5C 625.5,17.8333 625.5,29.1667 625.5,40.5C 613.5,40.5 601.5,40.5 589.5,40.5C 589.5,53.1667 589.5,65.8333 589.5,78.5C 598.833,78.5 608.167,78.5 617.5,78.5C 617.5,89.8333 617.5,101.167 617.5,112.5C 608.167,112.5 598.833,112.5 589.5,112.5C 589.5,127.167 589.5,141.833 589.5,156.5C 602.167,156.5 614.833,156.5 627.5,156.5C 627.5,167.833 627.5,179.167 627.5,190.5C 603.5,190.5 579.5,190.5 555.5,190.5C 555.5,129.167 555.5,67.8333 555.5,6.5 Z"/></g>
<g><path style="opacity:0.97" fill="#fcd370" d="M 634.5,6.5 C 654.869,6.087 675.203,6.587 695.5,8C 705.231,10.064 711.397,15.8974 714,25.5C 715.03,29.7727 715.697,34.106 716,38.5C 716.667,53.8333 716.667,69.1667 716,84.5C 715.855,95.284 712.021,104.451 704.5,112C 700.469,114.455 696.136,116.121 691.5,117C 683.841,117.5 676.174,117.666 668.5,117.5C 668.5,141.833 668.5,166.167 668.5,190.5C 657.167,190.5 645.833,190.5 634.5,190.5C 634.5,129.167 634.5,67.8333 634.5,6.5 Z M 668.5,36.5 C 671.85,36.335 675.183,36.5017 678.5,37C 680.766,38.514 681.932,40.6807 682,43.5C 682.924,56.8896 682.591,70.223 681,83.5C 680.167,84.3333 679.333,85.1667 678.5,86C 675.183,86.4983 671.85,86.665 668.5,86.5C 668.5,69.8333 668.5,53.1667 668.5,36.5 Z"/></g>
<g><path style="opacity:0.977" fill="#fcd370" d="M 724.5,6.5 C 735.5,6.5 746.5,6.5 757.5,6.5C 757.333,37.1685 757.5,67.8351 758,98.5C 764.82,67.8869 771.32,37.2202 777.5,6.5C 788.5,6.5 799.5,6.5 810.5,6.5C 810.5,67.8333 810.5,129.167 810.5,190.5C 799.5,190.5 788.5,190.5 777.5,190.5C 777.667,161.165 777.5,131.831 777,102.5C 770.509,131.465 764.175,160.465 758,189.5C 746.915,190.487 735.748,190.821 724.5,190.5C 724.5,129.167 724.5,67.8333 724.5,6.5 Z"/></g>
<g><path style="opacity:0.977" fill="#fcd370" d="M 818.5,6.5 C 845.5,6.5 872.5,6.5 899.5,6.5C 899.5,17.8333 899.5,29.1667 899.5,40.5C 891.5,40.5 883.5,40.5 875.5,40.5C 875.5,90.5 875.5,140.5 875.5,190.5C 864.5,190.5 853.5,190.5 842.5,190.5C 842.5,140.5 842.5,90.5 842.5,40.5C 834.5,40.5 826.5,40.5 818.5,40.5C 818.5,29.1667 818.5,17.8333 818.5,6.5 Z"/></g>
<g><path style="opacity:0.974" fill="#fcd370" d="M 913.5,6.5 C 926.833,6.5 940.167,6.5 953.5,6.5C 961.67,67.859 970.003,129.192 978.5,190.5C 967.5,190.5 956.5,190.5 945.5,190.5C 944.354,180.516 943.354,170.516 942.5,160.5C 936.167,160.5 929.833,160.5 923.5,160.5C 922.5,170.497 921.5,180.497 920.5,190.5C 910.5,190.5 900.5,190.5 890.5,190.5C 898.167,129.167 905.833,67.8333 913.5,6.5 Z M 932.5,74.5 C 935.07,91.9618 937.07,109.628 938.5,127.5C 934.445,127.824 930.445,127.491 926.5,126.5C 928.5,109.165 930.5,91.8315 932.5,74.5 Z"/></g>
</svg>
